<svg width="12" height="12" viewBox="0 0 12 12" fill="none" xmlns="http://www.w3.org/2000/svg">
<g clip-path="url(#clip0_26_16)">
<path d="M5.25 10.5H3C2.73478 10.5 2.48043 10.3946 2.29289 10.2071C2.10536 10.0196 2 9.76522 2 9.5V3.5C2 3.23478 2.10536 2.98043 2.29289 2.79289C2.48043 2.60536 2.73478 2.5 3 2.5H9C9.26522 2.5 9.51957 2.60536 9.70711 2.79289C9.89464 2.98043 10 3.23478 10 3.5V5" stroke="#272F58" stroke-linecap="round" stroke-linejoin="round"/>
<path d="M8 1.5V3.5" stroke="#272F58" stroke-linecap="round" stroke-linejoin="round"/>
<path d="M4 1.5V3.5" stroke="#272F58" stroke-linecap="round" stroke-linejoin="round"/>
<path d="M2 5.5H7" stroke="#272F58" stroke-linecap="round" stroke-linejoin="round"/>
<path d="M7 9C7 9.53043 7.21071 10.0391 7.58579 10.4142C7.96086 10.7893 8.46957 11 9 11C9.53043 11 10.0391 10.7893 10.4142 10.4142C10.7893 10.0391 11 9.53043 11 9C11 8.46957 10.7893 7.96086 10.4142 7.58579C10.0391 7.21071 9.53043 7 9 7C8.46957 7 7.96086 7.21071 7.58579 7.58579C7.21071 7.96086 7 8.46957 7 9Z" stroke="#272F58" stroke-linecap="round" stroke-linejoin="round"/>
<path d="M9 8.25V9L9.25 9.25" stroke="#272F58" stroke-linecap="round" stroke-linejoin="round"/>
</g>
<defs>
<clipPath id="clip0_26_16">
<rect width="12" height="12" fill="white"/>
</clipPath>
</defs>
</svg>
