<svg width="66" height="56" viewBox="0 0 66 56" fill="none" xmlns="http://www.w3.org/2000/svg">
<path d="M65.5 38C65.5 47.9411 57.4411 56 47.5 56L20.5 56C17.7386 56 15.5 53.7614 15.5 51L15.5 17C15.5 11.4772 19.9772 7 25.5 7L60.5 7C63.2614 7 65.5 9.23858 65.5 12L65.5 38Z" fill="#FFFDD9"/>
<path d="M32.6567 42.1362C32.9066 42.2401 33.1564 42.4033 33.3683 42.6459C33.85 43.1915 34.0686 44.0071 33.9226 44.7213C33.7807 45.4329 33.337 45.9006 32.7813 46.0498L25.7961 47.9314C25.2798 48.0393 24.7174 47.8648 24.2863 47.3931C23.8279 46.894 23.6514 46.1644 23.7973 45.5022C23.9392 44.8499 24.387 44.3402 24.9253 44.1969L32.6567 42.1362ZM33.275 36.8133C33.844 37.4383 34.0899 38.3717 33.9127 39.1979C33.7354 40.0267 33.1944 40.6097 32.5175 40.7936L24.7614 42.8691C24.0818 43.0496 23.3249 42.8178 22.7599 42.1895C22.1836 41.5538 21.9544 40.693 22.135 39.8542C22.2975 39.0766 22.8079 38.3997 23.4468 38.2298L31.2676 36.133C32.0151 35.9352 32.8479 36.3449 33.275 36.8133ZM31.682 30.8715C32.247 31.4998 32.4968 32.4259 32.3196 33.2561C32.1424 34.0856 31.6014 34.6646 30.9218 34.8451L23.1657 36.9199C22.4887 37.1038 21.7319 36.8713 21.1669 36.2396C20.5905 35.6054 20.3613 34.7485 20.5419 33.911C20.7151 33.0828 21.2521 32.5065 21.9371 32.3146L29.6785 30.1879C30.3941 29.9907 31.2136 30.3891 31.682 30.8715ZM10.8883 15.3607C11.933 15.308 13.5534 16.0403 14.2056 16.9884C16.0066 19.6082 16.2225 22.5817 16.6249 27.277C16.6629 27.6867 17.062 27.9672 17.4617 27.8599L39.1469 21.9947C39.8758 21.7975 40.4028 21.9088 40.8019 22.1506C41.2003 22.3932 41.4848 22.7969 41.6061 23.2613C41.8533 24.1914 41.5368 25.2568 40.115 25.6839L21.5839 31.0347C20.3933 31.3612 19.5018 32.3673 19.234 33.6305C18.9675 34.8831 19.3146 36.1843 20.1708 37.1358C20.5559 37.5629 21.0283 37.882 21.532 38.0799C21.1948 38.5063 20.945 39.016 20.8264 39.579C20.5599 40.8283 20.907 42.1328 21.7672 43.0843C22.1356 43.4927 22.5794 43.7985 23.0584 43.9964C22.7919 44.3495 22.594 44.7633 22.4921 45.2177C22.2562 46.2977 22.552 47.4777 23.2976 48.2965C23.3769 48.3825 23.4642 48.4591 23.5514 48.5357L21.8545 48.9901C18.7276 49.8369 17.0966 50.1914 16.0206 50.2014C14.9445 50.212 14.3382 49.9209 12.991 49.3026C10.2633 48.0453 8.54965 45.1657 7.7921 41.765C7.03189 38.3677 7.25842 34.5013 8.27515 31.5324L10.4679 25.1229C11.28 22.7456 11.0482 20.3477 10.0348 17.6273C9.66633 16.6386 9.74961 16.0862 9.90952 15.8157C10.0661 15.5446 10.3639 15.3853 10.8883 15.3607ZM10.8223 14.0248C10.0101 14.0661 9.18528 14.3966 8.75087 15.1415C8.31779 15.8917 8.34244 16.8878 8.78618 18.0884C9.73362 20.6422 9.90685 22.641 9.2066 24.6951L7.0099 31.0974C5.89856 34.3428 5.67336 38.4024 6.48954 42.0602C7.30839 45.7214 9.19661 49.0248 12.43 50.5099C13.7732 51.1275 14.6894 51.5439 16.0319 51.5339C17.3751 51.5239 19.0548 51.1282 22.1989 50.2813L33.1324 47.3391C35.7949 46.6235 35.9781 42.5639 34.0592 41.4572C36.5058 39.2639 34.948 35.5441 32.9286 35.0064C34.497 33.3713 33.6888 30.501 32.0791 29.4816L40.5014 26.9625C42.5236 26.3582 43.3018 24.4646 42.896 22.9229C42.6941 22.156 42.2191 21.4517 41.5008 21.0107C40.7826 20.5702 39.8312 20.4277 38.8044 20.7055L17.8608 26.3722C17.5044 22.156 17.2152 19.0085 15.3077 16.2361C14.3096 14.7843 12.4434 13.9488 10.8223 14.0248Z" fill="#3A392D"/>
<path d="M26.9895 11.4186C26.7189 11.426 26.4831 11.5919 26.3831 11.8424L24.2451 17.0333C24.1032 17.3738 24.2657 17.7629 24.6055 17.9055C24.9467 18.0474 25.3384 17.8835 25.4803 17.5443L27.6184 12.3494C27.8096 11.9043 27.4765 11.408 26.9895 11.4186Z" fill="#3A392D"/>
<path d="M20.5459 10.5537C20.1788 10.5577 19.8836 10.8596 19.8876 11.2273L19.8836 16.6861C19.8589 17.0666 20.1648 17.3904 20.5459 17.3944C20.9283 17.3944 21.2328 17.0745 21.2161 16.6934L21.2201 11.2307C21.2261 10.8562 20.9203 10.5504 20.5459 10.5537Z" fill="#3A392D"/>
<path d="M32.1571 15.3986C31.9838 15.4059 31.8199 15.4746 31.6987 15.6005L27.8609 19.4629C27.6004 19.7234 27.6004 20.1458 27.8636 20.4063C28.1241 20.6668 28.5479 20.6628 28.8084 20.399L32.6461 16.5413C33.0732 16.1142 32.7607 15.3859 32.1571 15.3986Z" fill="#3A392D"/>
</svg>
