<svg width="172" height="195" viewBox="0 0 172 195" fill="none" xmlns="http://www.w3.org/2000/svg">
<path d="M76.4544 60.0496C76.4544 60.0496 67.1662 84.1491 75.6211 96.578C75.6211 96.578 81.278 105.786 93.8759 100.643L93.1553 110.068C92.9088 113.293 94.9932 116.244 98.1222 117.067C103.197 118.405 108.999 118.847 114.161 116.359C121.165 112.981 117.386 104.725 117.386 104.725L115.372 74.2389C115.372 74.2389 121.752 76.0205 123.391 69.1805C125.031 62.3405 119.349 54.679 114.504 63.0658C114.504 63.0658 114.438 45.1021 93.8783 46.9682C93.8783 46.9682 81.3532 45.6795 76.4567 60.0472L76.4544 60.0496Z" fill="white"/>
<path d="M53.843 75.246C53.4393 76.1074 52.8619 76.8726 52.1577 77.4923C51.4511 78.112 50.6226 78.5862 49.7118 78.8702L26.6897 86.1937L16.8733 89.3179L16.7982 88.5316L14.4134 63.6035L47.8246 65.3428C49.4395 65.4296 50.9746 66.0798 52.1553 67.1901L52.3267 67.3521C54.4862 69.3778 55.1012 72.5607 53.8454 75.246H53.843Z" fill="#B77030"/>
<path d="M26.6897 86.1937L16.8734 89.3179L16.7982 88.5316C21.1712 86.9706 26.847 83.1633 27.1216 73.9432C27.1216 73.9432 28.9149 80.1048 26.6897 86.1937Z" fill="#231F20"/>
<path d="M14.4183 89.4353C21.5846 89.4353 27.3941 83.6258 27.3941 76.4595C27.3941 69.2932 21.5846 63.4837 14.4183 63.4837C7.252 63.4837 1.44257 69.2932 1.44257 76.4595C1.44257 83.6258 7.252 89.4353 14.4183 89.4353Z" fill="#444E71"/>
<path d="M17.8005 85.9401C16.8593 86.2476 15.8523 86.4073 14.8124 86.4073C9.38318 86.4073 4.97968 82.0038 4.97968 76.5745C4.97968 71.1452 9.38318 66.7417 14.8124 66.7417C15.4697 66.7417 16.1082 66.8075 16.7278 66.9319C12.7586 68.1947 9.88315 71.9081 9.88315 76.2975C9.88315 81.0695 13.2891 85.0529 17.8005 85.9401Z" fill="#231F20"/>
<path d="M2.03854 72.6498C5.76838 62.0167 15.7725 63.6715 15.7725 63.6715C15.7725 63.6715 24.3424 64.594 26.8212 72.5606C28.1239 76.7435 27.2671 81.363 24.5842 84.8252C23.5491 86.1608 22.1783 87.4448 20.399 88.2874C20.399 88.2874 11.8267 92.5736 5.25199 85.7688" stroke="#231F20" stroke-miterlimit="10"/>
<path d="M1.61841 74.3939C1.61841 74.3939 0.160746 79.5344 3.99386 84.3158" stroke="#231F20" stroke-miterlimit="10"/>
<path d="M16.1739 68.9998C16.1739 68.9998 11.8924 71.6358 12.1107 75.9173L14.4087 76.5768C14.4087 76.5768 13.7796 74.1826 16.1739 68.9998Z" fill="white"/>
<path d="M12.9909 77.9195L15.0777 78.3631L15.8452 80.8606C15.8452 80.8606 13.6834 81.7714 12.9909 77.9218V77.9195Z" fill="white"/>
<path d="M16.4673 86.0552C16.4673 86.0552 25.2884 84.8111 23.5866 74.3939" stroke="black" stroke-miterlimit="10"/>
<path d="M36.0811 83.2056L38.5552 82.3159C38.5552 82.3159 41.1372 78.6213 45.2918 77.6425C45.2918 77.6425 48.6602 76.6191 49.1414 79.5931C49.6226 82.5671 48.2917 84.2712 47.1486 84.7524C46.0054 85.2336 43.7966 85.4097 42.1793 86.0059C40.5621 86.6021 38.8274 88.9188 38.6866 91.238C38.5457 93.5571 38.4378 97.4207 38.4495 98.2282C38.4612 99.0356 38.804 108.035 40.4917 113.284C42.1794 118.53 46.1134 126.433 52.0473 128.013L59.7394 158.077L57.0001 160.225C57.0001 160.225 43.2967 159.584 37.2806 155.748C31.2668 151.915 21.3824 145.502 19.0657 132.332C19.0657 132.332 16.7512 116.166 20.1219 101.69L23.4926 87.2124L36.0835 83.2056H36.0811Z" fill="white"/>
<path d="M23.4903 87.2123C23.4903 87.2123 11.4793 126.642 23.4903 143.711C35.5014 160.781 56.3992 162.666 69.8515 158.077L51.7281 127.952C51.7281 127.952 36.1727 123.086 38.7265 90.6746C38.7805 89.9798 38.9894 89.3038 39.3298 88.6935C40.4025 86.7734 42.3155 85.3392 46.1087 85.0575C49.7564 84.7876 50.6038 77.1143 46.5312 77.4335C42.4564 77.7528 37.9543 81.945 37.8886 83.9214" stroke="black" stroke-miterlimit="10"/>
<path d="M40.1912 62.6316C40.1912 62.6316 45.0055 60.167 45.7754 65.845C46.9349 74.3938 41.7169 71.1663 41.7169 71.1663C41.7169 71.1663 40.886 70.5654 41.5127 69.0749C42.1394 67.5844 41.3907 63.6832 40.1912 62.6316Z" fill="white" stroke="black" stroke-miterlimit="10"/>
<path d="M27.2318 61.1387C30.2176 61.1387 32.1823 64.2019 33.3418 65.9155C35.4849 69.0772 34.7807 73.631 31.971 73.922C29.1613 74.2131 29.9171 70.8776 29.619 69.2509C28.882 65.2465 23.948 63.9484 23.948 63.9484C23.948 63.9484 23.6828 61.1387 27.2318 61.1387Z" fill="white" stroke="black" stroke-miterlimit="10"/>
<path d="M152.279 161.541C152.279 161.541 144.45 153.474 159.412 166.116C159.412 166.116 162.431 142.796 157.161 125.499C151.889 108.202 118.18 104.723 118.18 104.723C102.725 128.325 92.7516 106.69 92.7516 106.69L52.5731 125.375C52.5731 125.375 41.1935 155.298 62.2674 161.83L74.7714 158.072L73.6494 194.399H152.593L152.281 161.541H152.279Z" fill="#E6E7E8"/>
<path d="M117.454 105.805L115.37 74.2413C115.37 74.2413 121.184 75.9994 123.388 69.1829C124.933 64.4062 121.386 57.2329 116.159 60.789C112.647 63.1762 115.508 67.7792 113.682 69.042C111.856 70.3072 107.572 63.0893 110.1 57.4699C110.1 57.4699 93.3125 66.0915 87.6932 50.9187C87.6932 50.9187 86.7096 59.7703 76.4544 60.0496C76.4544 60.0496 62.1078 108.371 90.9418 101.519C94.0191 100.787 96.9414 99.5168 99.6361 97.8596C102.256 96.2494 105.88 93.7941 108.556 91.0971" stroke="black" stroke-miterlimit="10"/>
<path d="M78.4872 71.7438C79.3972 71.7438 80.1349 71.0061 80.1349 70.096C80.1349 69.186 79.3972 68.4482 78.4872 68.4482C77.5771 68.4482 76.8394 69.186 76.8394 70.096C76.8394 71.0061 77.5771 71.7438 78.4872 71.7438Z" fill="black"/>
<path d="M91.1014 74.9337C92.0115 74.9337 92.7492 74.196 92.7492 73.2859C92.7492 72.3759 92.0115 71.6382 91.1014 71.6382C90.1914 71.6382 89.4536 72.3759 89.4536 73.2859C89.4536 74.196 90.1914 74.9337 91.1014 74.9337Z" fill="black"/>
<path d="M85.0595 71.8447C85.0595 71.8447 81.325 80.2503 80.8532 81.5835C80.1138 83.6679 85.3764 83.9942 85.3764 83.9942" stroke="black" stroke-miterlimit="10"/>
<path d="M91.1014 66.7933C91.1014 66.7933 95.5589 65.4742 97.6668 70.0936" stroke="black" stroke-miterlimit="10"/>
<path d="M82.9751 66.7934C82.9751 66.7934 80.1372 61.9462 77.297 65.3873" stroke="black" stroke-miterlimit="10"/>
<path d="M85.3224 91.8741C85.3224 91.8741 89.7282 95.4231 91.3643 87.9424" stroke="black" stroke-miterlimit="10"/>
<path d="M89.4536 36.4477C89.4536 36.4477 100.197 26.7534 113.544 35.7458C126.89 44.7359 130.402 56.5381 131.526 63.5611C132.651 70.5865 137.61 71.5583 139.695 77.4218C145.737 94.4209 124.184 94.3363 116.692 94.2002L115.372 74.2389C115.372 74.2389 122.647 76.0651 123.75 67.2839C123.75 67.2839 123.21 59.444 118.464 60.0261C116.98 60.2092 115.727 61.1974 115.027 62.5189C114.628 63.2701 114.283 64.1926 114.3 65.1056C114.342 67.2135 115.22 70.5631 111.783 68.6054C111.783 68.6054 108.626 65.8732 109.523 58.0967C109.523 58.0967 92.7516 65.4554 87.6955 50.914C87.6955 50.914 85.4468 60.0449 76.4567 60.0449C76.4567 60.0449 69.6825 78.6377 74.755 94.8035C74.755 94.8035 65.6287 97.2658 57.7372 93.8669C51.6788 91.2567 51.2962 80.6306 56.709 76.7388C57.9038 75.8797 59.007 74.8891 59.8873 73.7084C64.603 67.3872 66.9408 65.561 64.2696 59.1999C61.3191 52.1745 64.8048 32.8587 89.456 36.4406L89.4536 36.4477Z" fill="black"/>
<path d="M93.8735 100.644L93.4088 108.063" stroke="black" stroke-miterlimit="10"/>
<path d="M161.71 175.761C161.71 175.761 158.708 176.519 152.025 176.219L154.095 167.719C154.095 167.719 161.464 170.722 161.71 175.764V175.761Z" fill="black"/>
<path d="M36.0811 62.526C36.0811 62.526 39.4518 60.1036 40.717 62.9485C41.9822 65.7934 42.5079 70.1617 39.4518 71.7438C39.4518 71.7438 38.8439 72.1639 38.2383 71.7438C38.2383 71.7438 39.2476 69.5491 38.7781 67.5398C38.3087 65.5305 36.6233 62.7208 36.0787 62.526H36.0811Z" fill="white" stroke="black" stroke-miterlimit="10"/>
<path d="M31.6447 63.3921C31.6447 63.3921 34.0319 58.0661 37.1421 62.3077C40.2499 66.5492 39.8015 72.739 36.6937 71.8423C33.5859 70.9457 35.2196 67.6806 34.4544 66.6783C33.6916 65.6784 33.3582 65.9272 33.3582 65.9272L31.6424 63.3898L31.6447 63.3921Z" fill="white" stroke="black" stroke-miterlimit="10"/>
<path d="M59.737 134.947C59.737 134.947 65.3189 128.231 69.1168 123.595L111.678 122.436L127.588 168.269L123.703 185.77L83.4399 184.517L59.737 134.947Z" fill="#B77030"/>
<path d="M71.4242 126.473L64.3471 134.855L107.274 133.35L125.391 178.587L126.599 172.219L109.262 125.365L71.4242 126.473Z" fill="white" stroke="black" stroke-miterlimit="10"/>
<path d="M106.638 156.964C106.638 156.964 94.0144 140.655 91.5286 140.052C91.5286 140.052 87.3293 141.061 88.9818 144.662C90.7329 148.479 93.4863 149.007 93.4863 149.007C93.4863 149.007 94.6458 150.087 92.3807 150.469C92.3807 150.469 79.9213 145.716 78.0717 145.446C76.3675 145.197 75.1399 145.862 76.8206 149.556L77.7524 150.469C77.7524 150.469 74.8676 152.96 77.0975 154.725C79.3275 156.49 80.088 156.863 80.088 156.863C80.088 156.863 78.4238 159.408 79.9448 160.682C81.4635 161.957 83.1066 162.795 83.1066 162.795C83.1066 162.795 80.264 164.574 82.7169 165.985C85.1699 167.396 88.5077 169.94 95.5683 169.233C95.5683 169.233 101.875 169.081 103.979 170.191C106.084 171.299 120.154 185.634 127.501 189.437C131.099 191.298 142.695 198.783 148.69 188.073C148.69 188.073 150.882 183.939 151.884 178.13C152.887 172.323 158.891 153.251 158.417 141.134C158.417 141.134 160.05 125.259 150.147 126.032C150.147 126.032 143.293 125.654 139.714 135.292C139.714 135.292 130.102 151.852 130.594 162.915L109.65 159.166C109.65 159.166 107.387 158.049 106.64 156.967L106.638 156.964Z" fill="white"/>
<path d="M77.7219 150.469C77.7219 150.469 74.0602 153.239 78.8369 156.166C83.6113 159.093 91.9136 160.682 91.9136 160.682" stroke="black" stroke-miterlimit="10"/>
<path d="M80.0833 156.861C80.0833 156.861 75.4521 163.438 90.2001 163.384" stroke="black" stroke-miterlimit="10"/>
<path d="M83.0949 162.621C83.0949 162.621 78.3604 165.729 87.8152 168.266C90.6508 169.027 93.5919 169.309 96.5284 169.217C99.1409 169.135 103.655 168.59 105.584 170.985C109.516 175.867 144.08 211.898 150.68 182.646C155.281 162.25 165.285 126.853 150.119 126.029C134.953 125.205 130.592 162.912 130.592 162.912L110.33 159.349C108.828 159.065 107.497 158.211 106.612 156.964C103.115 152.04 93.3994 139.939 91.5028 140.052C88.8832 140.209 85.5595 145.127 93.4605 149.009C93.4605 149.009 94.3383 149.624 93.2867 150.357C90.9606 151.979 76.6328 141.709 75.8676 146.96C75.1047 152.211 91.0263 156.293 91.0263 156.293" stroke="black" stroke-miterlimit="10"/>
<path d="M152.025 118.15C152.025 118.15 137.439 113.577 135.132 130.266C134.108 137.677 129.106 163.473 131.209 162.884C131.209 162.884 160.022 165.015 161.71 175.761C161.71 175.761 167.759 125.56 152.025 118.15Z" fill="#E6E7E8"/>
<path d="M130.592 162.912L133.073 142.817" stroke="black" stroke-miterlimit="10"/>
<path d="M120.269 64.9507C120.269 64.9507 121.217 70.0091 116.424 70.5349" stroke="black" stroke-miterlimit="10"/>
<path d="M159.053 46.3282C163.868 43.5481 162.435 32.0504 155.851 20.6472C149.267 9.24408 140.027 2.25368 135.212 5.03374C130.396 7.8138 131.83 19.3116 138.414 30.7147C144.997 42.1179 154.238 49.1082 159.053 46.3282Z" stroke="#231F20" stroke-miterlimit="10"/>
<path d="M153.215 34.815C163.151 26.1748 168.248 15.7693 164.6 11.5737C160.951 7.37804 149.939 10.9811 140.003 19.6213C130.067 28.2615 124.97 38.667 128.619 42.8626C132.267 47.0583 143.28 43.4553 153.215 34.815Z" stroke="#231F20" stroke-miterlimit="10"/>
<path d="M169.23 28.724C169.594 23.1757 159.237 17.9799 146.098 17.1187C132.959 16.2576 122.013 20.0571 121.65 25.6054C121.286 31.1536 131.642 36.3494 144.781 37.2106C157.921 38.0718 168.867 34.2722 169.23 28.724Z" stroke="#231F20" stroke-miterlimit="10"/>
<path d="M132.282 13.2823C133.372 13.2823 134.256 12.3985 134.256 11.3083C134.256 10.218 133.372 9.3342 132.282 9.3342C131.192 9.3342 130.308 10.218 130.308 11.3083C130.308 12.3985 131.192 13.2823 132.282 13.2823Z" fill="#444E71"/>
<path d="M153.581 48.4165C154.672 48.4165 155.555 47.5326 155.555 46.4424C155.555 45.3521 154.672 44.4683 153.581 44.4683C152.491 44.4683 151.607 45.3521 151.607 46.4424C151.607 47.5326 152.491 48.4165 153.581 48.4165Z" fill="#444E71"/>
<path d="M132.282 46.0739C133.372 46.0739 134.256 45.19 134.256 44.0998C134.256 43.0095 133.372 42.1257 132.282 42.1257C131.192 42.1257 130.308 43.0095 130.308 44.0998C130.308 45.19 131.192 46.0739 132.282 46.0739Z" fill="#B77030"/>
<path d="M165.367 15.8432C166.457 15.8432 167.341 14.9594 167.341 13.8691C167.341 12.7789 166.457 11.8951 165.367 11.8951C164.277 11.8951 163.393 12.7789 163.393 13.8691C163.393 14.9594 164.277 15.8432 165.367 15.8432Z" fill="#B77030"/>
<path d="M152.588 194.401H34.1868" stroke="#231F20" stroke-miterlimit="10"/>
</svg>
