<svg width="13" height="15" viewBox="0 0 13 15" fill="none" xmlns="http://www.w3.org/2000/svg">
<path d="M4.5166 6.62605C4.5166 7.18561 4.73889 7.72226 5.13456 8.11793C5.53023 8.51361 6.06688 8.73589 6.62645 8.73589C7.18601 8.73589 7.72266 8.51361 8.11833 8.11793C8.514 7.72226 8.73629 7.18561 8.73629 6.62605C8.73629 6.06648 8.514 5.52984 8.11833 5.13416C7.72266 4.73849 7.18601 4.5162 6.62645 4.5162C6.06688 4.5162 5.53023 4.73849 5.13456 5.13416C4.73889 5.52984 4.5166 6.06648 4.5166 6.62605Z" stroke="#272F58" stroke-width="1.40656" stroke-linecap="round" stroke-linejoin="round"/>
<path d="M10.6047 10.6045L7.62069 13.5885C7.35695 13.852 6.9994 14 6.6266 14C6.25381 14 5.89626 13.852 5.63252 13.5885L2.64779 10.6045C1.86097 9.81765 1.32515 8.81515 1.10809 7.72377C0.891022 6.63239 1.00246 5.50116 1.4283 4.47311C1.85415 3.44506 2.57528 2.56638 3.50051 1.94817C4.42573 1.32997 5.5135 1 6.62625 1C7.73901 1 8.82677 1.32997 9.752 1.94817C10.6772 2.56638 11.3984 3.44506 11.8242 4.47311C12.25 5.50116 12.3615 6.63239 12.1444 7.72377C11.9273 8.81515 11.3915 9.81765 10.6047 10.6045Z" stroke="#272F58" stroke-width="1.40656" stroke-linecap="round" stroke-linejoin="round"/>
</svg>
