<svg width="170" height="190" viewBox="0 0 170 190" fill="none" xmlns="http://www.w3.org/2000/svg">
<path d="M101.851 134.709C101.851 134.709 116.306 141.089 130.641 131.564C130.641 131.564 134.718 119.473 143.701 117.905C143.701 117.905 151.508 117.992 151.325 120.708C151.325 120.708 152.055 124.604 148.83 124.853C145.605 125.102 142.11 124.771 141.694 128.336L142.924 129.144C142.924 129.144 150.677 131.386 154.362 128.773C158.048 126.16 163.338 121.797 166.024 127.158C166.024 127.158 167.12 130.463 164.071 132.05C164.071 132.05 166.35 137.157 162.059 139C162.059 139 166.181 142.678 160.665 144.61L155.806 145.22C155.806 145.22 158.015 149.384 154.362 149.422C150.71 149.46 141.403 148.26 138.643 146.784C138.643 146.784 122.972 155.33 117.095 156.689C111.217 158.048 98.0769 161.635 90.575 156.689C90.575 156.689 77.9677 147.861 81.1741 137.601C84.3805 127.341 101.851 134.707 101.851 134.707V134.709Z" fill="white"/>
<path d="M142.344 129.144C142.344 129.144 151.834 132.083 157.287 126.801C162.62 121.64 170.265 127.902 164.071 132.047C157.876 136.193 150.132 134.768 150.132 134.768" stroke="#231F20" stroke-miterlimit="10"/>
<path d="M163.453 132.442C163.453 132.442 166.43 135.242 163.038 138.533C159.648 141.822 150.13 138.895 150.13 138.895" stroke="#231F20" stroke-miterlimit="10"/>
<path d="M162.059 138.998C162.059 138.998 164.348 140.587 163.115 142.899C161.883 145.211 153.714 147.138 148.243 142.359" stroke="#231F20" stroke-miterlimit="10"/>
<path d="M155.804 145.22C155.804 145.22 158.796 149.173 153.482 149.525C148.168 149.88 138.643 146.784 138.643 146.784C138.643 146.784 126.594 154.032 117.998 156.443C89.4788 164.44 79.0123 152.943 79.362 138.998C79.7094 125.107 90.92 124.851 90.92 124.851C105.253 146.861 130.491 132.047 130.491 132.047C130.491 132.047 134.253 117.884 145.757 117.715C145.757 117.715 150.555 117.715 151.327 120.705C151.327 120.705 152.637 125.56 147.013 125.097C142.772 124.747 141.427 127.522 141.696 128.334C141.966 129.146 146.551 131.571 145.011 135.885" stroke="#231F20" stroke-miterlimit="10"/>
<path d="M70.6794 111.173L103.328 131.564L89.7088 160.574L65.9825 110.732L70.6794 111.173Z" fill="black"/>
<path d="M15.3681 115.159C17.1989 112.76 25.9731 104.441 31.3202 103.284L43.8805 105.164C56.9032 107.366 68.6725 109.971 71.9423 110.711C72.515 110.84 73.0056 111.201 73.2967 111.713C74.5079 113.833 84.3524 140.162 88.6174 153.455C94.1405 170.698 100.903 189.403 100.903 189.403H0.115425C0.115425 189.403 9.76745 122.51 15.3681 115.163V115.159Z" fill="#E5E6E8"/>
<path d="M51.5115 91.355C73.1981 98.1503 80.8573 88.7307 80.8573 88.7307C86.141 81.0668 83.2726 61.8261 74.1159 52.5685C70.7452 49.1602 55.6216 36.9731 55.6216 36.9731C55.6216 36.9731 61.7269 51.2868 37.6649 62.7064C36.8175 63.1078 36.5711 64.1992 37.1743 64.9152C39.592 67.7859 44.5472 74.2057 42.6083 76.4943C42.6083 76.4943 42.3853 77.3041 40.1976 75.1775C35.0078 70.1332 26.6467 70.6378 29.2593 79.196C32.4445 89.6274 43.1223 84.076 43.1223 84.076C43.1998 84.583 43.2608 85.0924 43.3031 85.6041L42.3008 104.929" stroke="black" stroke-miterlimit="10"/>
<path d="M65.7243 93.8055L66.2478 109.546" stroke="black" stroke-miterlimit="10"/>
<path d="M48.6267 26.1028C26.0881 28.9806 27.3533 48.1978 27.3533 48.1978C27.3533 48.1978 10.7181 56.8006 19.6354 75.2854C23.9216 84.1699 38.9794 89.6461 38.9794 89.6461C38.9794 89.6461 25.3675 86.9303 26.7149 98.5423C27.0388 101.338 26.5153 100.854 25.7994 102.469C25.391 103.389 26.0576 107.258 27.0317 107.007C31.3953 105.88 39.2 100.84 43.059 90.7564L43.1224 84.076C43.1224 84.076 35.4467 88.4138 30.663 82.2404C30.663 82.2404 24.0812 67.9784 37.3809 73.1213L41.7468 76.438C42.7702 77.0975 43.181 75.0648 42.8547 73.8935C42.4064 72.2786 40.9253 69.6848 38.4536 66.4902C38.4536 66.4902 35.7472 63.657 37.6649 62.7087C39.5827 61.7581 60.3984 52.0168 55.6216 36.9754L67.358 46.381C67.358 46.381 71.1677 23.2274 48.6291 26.1052L48.6267 26.1028Z" fill="black"/>
<path d="M54.6686 151.499C54.6686 151.499 21.9193 162.903 5.54465 141.944C5.54465 141.944 16.6027 137.397 36.7142 141.096C36.7142 141.096 51.5091 145.873 54.6686 151.499Z" fill="black"/>
<path d="M105.738 159.72C105.738 159.72 109.609 145.295 121.775 145.418C121.775 145.418 129.415 146.957 123.81 152.046C123.81 152.046 116.149 152.837 117.031 155.276C117.914 157.715 124.829 158.736 128.662 155.802C128.662 155.802 130.46 155.107 131.756 153.764C133.859 151.582 136.227 150.504 139.689 152.57C139.689 152.57 143.358 157.614 139.316 159.72C139.316 159.72 141.171 163.332 137.401 166.841C137.401 166.841 135.699 172.601 130.249 172.667C130.249 172.667 133.633 174.789 131.089 176.268C128.545 177.749 119.991 177.883 115.383 178.517C110.776 179.15 102.457 181.627 102.457 181.627C102.457 181.627 77.0968 187.427 63.2901 186.504C52.9339 185.814 43.5753 186.556 33.7871 179.704C30.5244 177.42 26.7218 175.19 23.4779 170.585C23.4779 170.585 15.2178 156.231 13.7038 144.643L13.2461 134.198C13.2461 134.198 28.4377 124.022 47.6854 143.443C47.6854 143.443 51.15 153.443 55.6779 157.201C56.368 157.774 57.2412 158.065 58.0158 158.677C67.5152 166.196 105.734 159.715 105.734 159.715L105.738 159.72Z" fill="white"/>
<path d="M119.32 164.205C126.064 165.98 136.805 161.957 139.415 159.891C145.025 155.45 137.551 149.004 133.422 152.333C130.918 154.354 126.103 159.821 118.268 156.985C115.285 155.905 118.634 152.382 121.874 152.492C126.334 152.647 127.937 145.511 121.104 145.558C109.844 145.636 105.837 159.891 105.837 159.891C105.837 159.891 67.6937 166.372 56.1357 157.628C44.8523 149.093 47.0306 124.654 27.3534 119.548C13.3518 115.917 9.6783 136.801 16.7694 156.654C23.6939 176.047 41.5333 199.708 108.865 179.829C116.822 177.479 128.857 177.937 131.19 176.442C133.523 174.949 130.35 172.841 130.35 172.841" stroke="#231F20" stroke-miterlimit="10"/>
<path d="M139.415 159.893C139.415 159.893 141.023 163.628 137.551 166.374C134.077 169.12 121.101 169.125 121.101 169.125" stroke="#231F20" stroke-miterlimit="10"/>
<path d="M137.551 166.374C137.551 166.374 137.659 171.134 132.131 172.423C126.603 173.714 121.871 172.425 121.871 172.425" stroke="#231F20" stroke-miterlimit="10"/>
<path d="M54.4128 151.032C54.4128 151.032 34.8622 132.003 5.54231 141.944C5.54231 141.944 12.8142 106.075 28.9095 103.486C48.2018 100.383 55.1029 133.27 54.4128 151.032Z" fill="#E5E6E8"/>
<path d="M46.1175 113.25C53.2814 124.426 54.6686 151.19 54.6686 151.19C54.6686 151.19 38.4864 132.695 5.54465 141.944" stroke="black" stroke-miterlimit="10"/>
<path d="M55.6544 66.3681C56.5399 66.3681 57.2577 65.6504 57.2577 64.7649C57.2577 63.8795 56.5399 63.1617 55.6544 63.1617C54.769 63.1617 54.0513 63.8795 54.0513 64.7649C54.0513 65.6504 54.769 66.3681 55.6544 66.3681Z" fill="#231F20"/>
<path d="M67.5458 56.0189C68.4312 56.0189 69.149 55.3012 69.149 54.4158C69.149 53.5303 68.4312 52.8126 67.5458 52.8126C66.6604 52.8126 65.9426 53.5303 65.9426 54.4158C65.9426 55.3012 66.6604 56.0189 67.5458 56.0189Z" fill="#231F20"/>
<path d="M57.713 79.9847C57.713 79.9847 58.1942 86.7848 65.0624 82.548" stroke="#231F20" stroke-miterlimit="10"/>
<path d="M52.0044 60.1502C52.0044 60.1502 46.0447 60.6243 48.4671 67.1709" stroke="#231F20" stroke-miterlimit="10"/>
<path d="M69.9377 69.9806L72.2826 63.3331C67.405 61.7158 62.9709 57.5658 60.8889 55.3876C59.8702 54.3219 59.551 52.7563 60.0932 51.3854C60.741 49.7517 62.2902 48.1626 65.9989 49.3316" stroke="#231F20" stroke-miterlimit="10"/>
<path d="M32.1676 74.1095C32.1676 74.1095 30.4728 81.7804 38.6414 79.9871" stroke="#231F20" stroke-miterlimit="10"/>
<path d="M113.818 55.1904C117.01 53.1671 119.458 51.4042 121.162 49.9043C122.864 48.4021 123.815 47.0759 124.007 45.9257C124.134 45.1746 124.003 44.5596 123.611 44.0831C123.219 43.6066 122.637 43.3038 121.862 43.1723C120.404 42.9259 118.813 43.1301 117.083 43.7803L116.24 38.236C117.644 37.797 119.001 37.5177 120.315 37.4004C121.627 37.283 122.977 37.3417 124.364 37.5764C126.01 37.8534 127.394 38.4191 128.519 39.2735C129.643 40.1279 130.441 41.1677 130.911 42.3954C131.38 43.623 131.495 44.9539 131.253 46.3858C130.892 48.5241 129.84 50.3949 128.096 51.9981C126.352 53.6013 123.895 54.9932 120.721 56.1739L129.216 57.6058L128.347 62.751L112.98 60.1596L113.818 55.1904Z" fill="#B77030"/>
<path d="M136.87 54.7632L133.298 45.4257L140.734 46.6792L142.006 51.1719L144.753 47.3575L151.978 48.5758L145.612 56.2396L149.353 66.2954L142.128 65.0772L140.492 60.162L137.406 64.2814L129.969 63.028L136.873 54.7679L136.87 54.7632Z" fill="#B77030"/>
<path d="M157.907 106.131L151.236 103.685L153.846 96.5613L146.886 94.0098L149.224 87.6275L156.184 90.179L158.794 83.055L165.465 85.5009L162.855 92.6249L169.815 95.1764L167.477 101.559L160.517 99.0071L157.907 106.131Z" fill="#B77030"/>
<path d="M109.177 114.509L107.872 109.098C108.837 108.91 109.708 108.678 110.482 108.401C111.867 107.903 112.773 107.11 113.203 106.016C113.632 104.922 113.445 103.223 112.644 100.913C112.266 103.697 110.726 105.572 108.029 106.542C105.753 107.359 103.687 107.192 101.833 106.044C99.9758 104.896 98.5417 102.901 97.5229 100.063L94.3682 91.2634L101.76 88.6134L105.307 98.5025C105.593 99.3005 106.053 99.8827 106.689 100.251C107.325 100.62 108.029 100.664 108.804 100.387C109.602 100.101 110.13 99.5282 110.391 98.6668C110.651 97.8053 110.583 96.8241 110.189 95.7209L106.971 86.7449L114.398 84.0807L119.118 97.2443C120.583 101.326 120.782 104.765 119.717 107.556C118.651 110.347 116.419 112.354 113.017 113.574C111.726 114.037 110.447 114.349 109.182 114.513L109.177 114.509Z" fill="#B77030"/>
<path d="M9.34237 37.6669L12.3204 49.5935L77.9334 33.21L74.9554 21.2835L9.34237 37.6669Z" fill="#B77030"/>
<path d="M11.4463 26.1155L14.0405 36.5048L66.0031 23.5298L63.4089 13.1405L11.4463 26.1155Z" fill="#E5E6E8"/>
<path d="M31.0498 0.619779L30.2972 11.3016L83.7227 15.0656L84.4753 4.38377L31.0498 0.619779Z" fill="#B77030"/>
<path d="M67.5692 23.1265L70.623 35.0319" stroke="white" stroke-miterlimit="10"/>
<path d="M60.8395 24.8048L63.8934 36.7125" stroke="white" stroke-miterlimit="10"/>
<path d="M56.2154 14.9344L58.7951 25.3282" stroke="black" stroke-miterlimit="10"/>
<path d="M79.3362 4.01959L78.6437 14.7068" stroke="black" stroke-miterlimit="10"/>
<path d="M72.6581 3.55011L71.9656 14.2373" stroke="black" stroke-miterlimit="10"/>
<path d="M49.7158 16.5588L52.2955 26.9525" stroke="black" stroke-miterlimit="10"/>
<path d="M17.8561 24.5161L20.4334 34.9098" stroke="black" stroke-miterlimit="10"/>
<path d="M125.404 189.401H0.113007" stroke="#231F20" stroke-miterlimit="10"/>
</svg>
