<svg width="65" height="56" viewBox="0 0 65 56" fill="none" xmlns="http://www.w3.org/2000/svg">
<path d="M65 38C65 47.9411 56.9411 56 47 56L20 56C17.2386 56 15 53.7614 15 51L15 17C15 11.4772 19.4772 7 25 7L60 7C62.7614 7 65 9.23858 65 12L65 38Z" fill="#FFFDD9"/>
<g clip-path="url(#clip0_131_8)">
<path d="M15.3682 17.0625H15.5196L15.6455 16.9785L24.9356 10.7852C25.5059 10.4049 26.2441 10.4049 26.8144 10.7852L36.1045 16.9785L36.2304 17.0625H36.3818H44.4688C46.0041 17.0625 47.25 18.3084 47.25 19.8438V41.7188C47.25 43.2541 46.0041 44.5 44.4688 44.5H30.75V38.4375C30.75 35.7483 28.5642 33.5625 25.875 33.5625C23.1858 33.5625 21 35.7483 21 38.4375V44.5H7.28125C5.74587 44.5 4.5 43.2541 4.5 41.7188V19.8438C4.5 18.3084 5.74587 17.0625 7.28125 17.0625H15.3682ZM26.4688 20.9375V21.4375H26.9688H28.0625C28.3879 21.4375 28.6562 21.7058 28.6562 22.0312C28.6562 22.3567 28.3879 22.625 28.0625 22.625H25.875C25.5496 22.625 25.2812 22.3567 25.2812 22.0312V19.8438C25.2812 19.5183 25.5496 19.25 25.875 19.25C26.2004 19.25 26.4688 19.5183 26.4688 19.8438V20.9375ZM12.75 22.625H10.5625C9.68479 22.625 8.96875 23.341 8.96875 24.2188V28.5938C8.96875 29.4715 9.68479 30.1875 10.5625 30.1875H12.75C13.6277 30.1875 14.3438 29.4715 14.3438 28.5938V24.2188C14.3438 23.341 13.6277 22.625 12.75 22.625ZM39 22.625C38.1223 22.625 37.4062 23.341 37.4062 24.2188V28.5938C37.4062 29.4715 38.1223 30.1875 39 30.1875H41.1875C42.0652 30.1875 42.7812 29.4715 42.7812 28.5938V24.2188C42.7812 23.341 42.0652 22.625 41.1875 22.625H39ZM12.75 31.375H10.5625C9.68479 31.375 8.96875 32.091 8.96875 32.9688V37.3438C8.96875 38.2215 9.68479 38.9375 10.5625 38.9375H12.75C13.6277 38.9375 14.3438 38.2215 14.3438 37.3438V32.9688C14.3438 32.091 13.6277 31.375 12.75 31.375ZM39 31.375C38.1223 31.375 37.4062 32.091 37.4062 32.9688V37.3438C37.4062 38.2215 38.1223 38.9375 39 38.9375H41.1875C42.0652 38.9375 42.7812 38.2215 42.7812 37.3438V32.9688C42.7812 32.091 42.0652 31.375 41.1875 31.375H39ZM21.2678 17.424C20.0458 18.6459 19.3594 20.3032 19.3594 22.0312C19.3594 23.7593 20.0458 25.4166 21.2678 26.6385C22.4897 27.8604 24.1469 28.5469 25.875 28.5469C27.6031 28.5469 29.2603 27.8604 30.4822 26.6385C31.7042 25.4166 32.3906 23.7593 32.3906 22.0312C32.3906 20.3032 31.7042 18.6459 30.4822 17.424C29.2603 16.2021 27.6031 15.5156 25.875 15.5156C24.1469 15.5156 22.4897 16.2021 21.2678 17.424Z" stroke="#3A392D"/>
</g>
<defs>
<clipPath id="clip0_131_8">
<rect width="43.75" height="35" fill="white" transform="translate(4 10)"/>
</clipPath>
</defs>
</svg>
