<svg width="48" height="27" viewBox="0 0 48 27" fill="none" xmlns="http://www.w3.org/2000/svg">
<path d="M45.4499 17C45.0201 16.9985 44.6023 16.8586 44.2583 16.601C43.9142 16.3434 43.6623 15.9819 43.5399 15.57C43.3999 15.14 39.9399 4.62 23.9999 4.62C8.05986 4.62 4.59985 15.14 4.45985 15.62C4.30603 16.1279 3.95675 16.5539 3.48884 16.8042C3.02094 17.0546 2.47274 17.1088 1.96485 16.955C1.45697 16.8012 1.03098 16.4519 0.780623 15.984C0.530262 15.5161 0.476029 14.9679 0.629855 14.46C0.799855 13.86 4.99986 0.619995 23.9999 0.619995C42.9999 0.619995 47.1999 13.86 47.3699 14.43C47.4447 14.6834 47.4686 14.9492 47.4402 15.2119C47.4117 15.4746 47.3315 15.7291 47.2041 15.9607C47.0767 16.1922 46.9047 16.3962 46.698 16.5609C46.4913 16.7255 46.254 16.8476 45.9999 16.92C45.8204 16.9686 45.6357 16.9955 45.4499 17ZM33.8799 16.5C33.8818 14.5455 33.3041 12.6343 32.2196 11.0082C31.1352 9.38217 29.5929 8.11426 27.7877 7.36494C25.9825 6.61561 23.9957 6.41853 22.0785 6.79862C20.1613 7.17871 18.3999 8.1189 17.0172 9.50024C15.6344 10.8816 14.6925 12.642 14.3104 14.5588C13.9284 16.4756 14.1235 18.4627 14.871 20.2686C15.6185 22.0745 16.8848 23.6181 18.5098 24.7042C20.1348 25.7903 22.0453 26.37 23.9999 26.37C26.6177 26.3674 29.1276 25.3269 30.9796 23.4768C32.8316 21.6267 33.8746 19.1178 33.8799 16.5ZM29.8799 16.5C29.8799 17.6629 29.535 18.7998 28.8889 19.7667C28.2428 20.7337 27.3245 21.4874 26.25 21.9324C25.1756 22.3774 23.9933 22.4939 22.8527 22.267C21.7121 22.0401 20.6644 21.4801 19.8421 20.6578C19.0197 19.8354 18.4597 18.7877 18.2328 17.6471C18.006 16.5065 18.1224 15.3242 18.5674 14.2498C19.0125 13.1754 19.7661 12.2571 20.7331 11.611C21.7001 10.9648 22.8369 10.62 23.9999 10.62C25.5593 10.62 27.0549 11.2395 28.1576 12.3422C29.2604 13.4449 29.8799 14.9405 29.8799 16.5Z" fill="black"/>
</svg>
